<svg width="42" height="43" viewBox="0 0 42 43" fill="none" xmlns="http://www.w3.org/2000/svg">
<g clip-path="url(#clip0)">
<path d="M20.1382 42.4902H21.887C31.3807 42.4902 36.1284 42.4902 39.0768 39.5418C42.0252 36.5934 42 31.8474 42 22.3773V20.6032C42 11.1347 42 6.38704 39.0768 3.43864C36.1536 0.490243 31.3807 0.490234 21.887 0.490234H20.1382C10.6428 0.490234 5.8968 0.490243 2.9484 3.43864C-1.92261e-06 6.38704 0 11.1314 0 20.6032V22.3773C0 31.8474 -1.92261e-06 36.5934 2.9484 39.5418C5.8968 42.4902 10.6428 42.4902 20.1382 42.4902Z" fill="#D4D8E3"/>
<path d="M22.5385 30.772C13.0684 30.772 7.3211 24.2015 7.09766 13.2832H11.8941C12.0436 21.3035 15.6925 24.7072 18.4897 25.401V13.2832H23.0879V20.2031C25.786 19.9041 28.6084 16.7558 29.5593 13.2832H34.0801C33.3561 17.5554 30.2833 20.7038 28.1094 22.0024C30.2833 23.0524 33.7811 25.8009 35.1301 30.772H30.159C29.109 27.449 26.5353 24.8752 23.0879 24.5258V30.772H22.5385Z" fill="white"/>
</g>
<defs>
<clipPath id="clip0">
<rect width="42" height="42" fill="white" transform="translate(0 0.490234)"/>
</clipPath>
</defs>
</svg>
