<svg width="42" height="43" viewBox="0 0 42 43" fill="none"
	xmlns="http://www.w3.org/2000/svg">
	<g clip-path="url(#clip0)">
		<path d="M20.1382 42.6108H21.887C31.3807 42.6108 36.1284 42.6108 39.0768 39.6624C42.0252 36.714 42 31.968 42 22.4979V20.7238C42 11.2553 42 6.50765 39.0768 3.55925C36.1536 0.610848 31.3807 0.61084 21.887 0.61084H20.1382C10.6428 0.61084 5.8968 0.610848 2.9484 3.55925C-1.92261e-06 6.50765 0 11.252 0 20.7238V22.4979C0 31.968 -1.92261e-06 36.714 2.9484 39.6624C5.8968 42.6108 10.6428 42.6108 20.1382 42.6108Z" fill="#0077FF"/>
		<path d="M22.5385 30.8926C13.0684 30.8926 7.3211 24.3221 7.09766 13.4038H11.8941C12.0436 21.4241 15.6925 24.8278 18.4897 25.5216V13.4038H23.0879V20.3237C25.786 20.0247 28.6084 16.8764 29.5593 13.4038H34.0801C33.3561 17.676 30.2833 20.8244 28.1094 22.123C30.2833 23.173 33.7811 25.9215 35.1301 30.8926H30.159C29.109 27.5696 26.5353 24.9958 23.0879 24.6464V30.8926H22.5385Z" fill="white"/>
	</g>
	<defs>
		<clipPath id="clip0">
			<rect width="42" height="42" fill="white" transform="translate(0 0.61084)"/>
		</clipPath>
	</defs>
</svg>
