<svg width="43" height="43" viewBox="0 0 43 43" fill="none" xmlns="http://www.w3.org/2000/svg">
<rect x="0.619141" y="0.726562" width="42" height="42" rx="10" fill="white"/>
<path d="M21.7364 22.7286C25.5201 22.7286 28.6046 19.5845 28.6046 15.7276C28.6046 11.8708 25.5201 8.72662 21.7364 8.72662C17.9528 8.72662 14.8683 11.8708 14.8683 15.7276C14.8272 19.5845 17.9117 22.7286 21.7364 22.7286ZM21.7364 12.7931C23.2992 12.7931 24.5742 14.0927 24.5742 15.6857C24.5742 17.2787 23.2992 18.5783 21.7364 18.5783C20.1736 18.5783 18.8987 17.2787 18.8987 15.6857C18.8576 14.0927 20.1325 12.7931 21.7364 12.7931Z" fill="#A038E5"/>
<path d="M24.681 28.1777C26.1474 27.8447 27.5707 27.3037 28.8645 26.5129C29.8565 25.9302 30.1584 24.64 29.5115 23.6828C28.9077 22.7256 27.5707 22.4342 26.5787 23.0585C23.6459 24.8481 19.8075 24.8481 16.8747 23.0585C15.8827 22.4758 14.5889 22.7256 13.9419 23.6828C13.3381 24.64 13.5969 25.8886 14.5889 26.5129C15.8827 27.3037 17.306 27.8447 18.7724 28.1777L14.7614 32.0483C13.9419 32.839 13.9419 34.1292 14.7614 34.92C15.1927 35.3362 15.7102 35.5026 16.2709 35.5026C16.8316 35.5026 17.3491 35.2945 17.7804 34.92L21.7483 31.091L25.7161 34.92C26.5356 35.7107 27.8726 35.7107 28.692 34.92C29.5115 34.1292 29.5115 32.839 28.692 32.0483L24.681 28.1777Z" fill="#A038E5"/>
</svg>
