<svg width="27" height="22" viewBox="0 0 27 22" fill="none" xmlns="http://www.w3.org/2000/svg">
<path d="M8.49113 21.4902C18.6798 21.4902 24.2527 13.4102 24.2527 6.40327C24.2527 6.17379 24.2527 5.9453 24.2362 5.71786C25.3204 4.96725 26.2561 4.03784 27 2.97317C25.989 3.40198 24.9169 3.6832 23.8182 3.80743C24.9751 3.14476 25.8403 2.10249 26.2539 0.874594C25.1668 1.49224 23.9769 1.92752 22.7361 2.16166C21.901 1.31156 20.7966 0.748649 19.5931 0.560026C18.3904 0.371411 17.1553 0.567601 16.0811 1.11823C15.0061 1.66887 14.1502 2.54326 13.6468 3.60609C13.1435 4.66892 13.02 5.86094 13.2957 6.99769C11.0934 6.89199 8.93921 6.34412 6.97243 5.38973C5.00492 4.4353 3.27008 3.09562 1.87918 1.45765C1.17117 2.62495 0.953594 4.00681 1.27242 5.32186C1.59124 6.6369 2.42132 7.78629 3.59392 8.53593C2.71286 8.51096 1.85045 8.2833 1.07997 7.87223C1.07997 7.89396 1.07997 7.91668 1.07997 7.93947C1.08069 9.16368 1.52301 10.3501 2.33299 11.2975C3.14297 12.2449 4.27033 12.8949 5.52408 13.1373C4.70835 13.3502 3.85315 13.3813 3.02306 13.2283C3.37707 14.2819 4.06641 15.2032 4.99415 15.8635C5.92189 16.5237 7.04208 16.8898 8.19816 16.9106C6.23641 18.3863 3.81365 19.1873 1.31837 19.1849C0.878194 19.1841 0.437302 19.1585 0 19.1084C2.53334 20.6646 5.481 21.49 8.49113 21.4862" fill="#99A0B4"/>
</svg>
