<svg width="42" height="43" viewBox="0 0 42 43" fill="none" xmlns="http://www.w3.org/2000/svg">
<rect y="0.726562" width="42" height="42" rx="10" fill="white"/>
<path d="M21.1173 22.7286C24.9009 22.7286 27.9854 19.5845 27.9854 15.7276C27.9854 11.8708 24.9009 8.72662 21.1173 8.72662C17.3337 8.72662 14.2492 11.8708 14.2492 15.7276C14.2081 19.5845 17.2925 22.7286 21.1173 22.7286ZM21.1173 12.7931C22.6801 12.7931 23.955 14.0927 23.955 15.6857C23.955 17.2787 22.6801 18.5783 21.1173 18.5783C19.5545 18.5783 18.2796 17.2787 18.2796 15.6857C18.2385 14.0927 19.5134 12.7931 21.1173 12.7931Z" fill="#0077FF"/>
<path d="M24.0619 28.1777C25.5283 27.8447 26.9515 27.3037 28.2454 26.5129C29.2374 25.9302 29.5393 24.64 28.8923 23.6828C28.2885 22.7256 26.9515 22.4342 25.9596 23.0585C23.0268 24.8481 19.1883 24.8481 16.2555 23.0585C15.2636 22.4758 13.9697 22.7256 13.3228 23.6828C12.719 24.64 12.9777 25.8886 13.9697 26.5129C15.2636 27.3037 16.6868 27.8447 18.1532 28.1777L14.1422 32.0483C13.3228 32.839 13.3228 34.1292 14.1422 34.92C14.5735 35.3362 15.0911 35.5026 15.6517 35.5026C16.2124 35.5026 16.73 35.2945 17.1613 34.92L21.1291 31.091L25.097 34.92C25.9164 35.7107 27.2534 35.7107 28.0729 34.92C28.8923 34.1292 28.8923 32.839 28.0729 32.0483L24.0619 28.1777Z" fill="#0077FF"/>
</svg>
