<svg width="601" height="161" viewBox="0 0 601 161" fill="none" xmlns="http://www.w3.org/2000/svg">
<path d="M-0.493549 62.6389C-16.2335 43.9687 -26.3971 21.7371 -29.3957 0H-45.2461C-43.8468 11.6472 -40.837 23.0436 -36.3029 33.8629C-30.3933 47.9608 -22.3718 61.0769 -12.5142 72.7604C-10.1784 75.5275 -7.78833 78.1579 -5.34387 80.6514H18.1766C11.3387 75.3186 5.08088 69.2812 -0.493549 62.6389Z" fill="#F2F3F5"/>
<path d="M108.243 62.6389C92.5034 43.9687 82.3451 21.7371 79.3465 0H63.4961C64.8977 11.6467 67.9074 23.0429 72.4392 33.8629C78.351 47.9598 86.3723 61.0756 96.228 72.7604C98.5638 75.5275 100.956 78.1579 103.404 80.6514H126.919C120.08 75.3174 113.821 69.2802 108.243 62.6389Z" fill="#F2F3F5"/>
<path d="M202.896 62.6389C187.156 43.9687 176.997 21.7371 173.999 0H158.148C159.55 11.6467 162.56 23.0429 167.092 33.8629C173.003 47.9598 181.025 61.0756 190.88 72.7604C193.216 75.5275 195.608 78.1579 198.056 80.6514H221.571C214.733 75.3174 208.473 69.2802 202.896 62.6389Z" fill="#F2F3F5"/>
<path d="M297.545 62.6389C281.805 43.9687 271.647 21.7371 268.648 0H252.787C254.186 11.6472 257.196 23.0437 261.73 33.8629C267.642 47.9598 275.663 61.0756 285.519 72.7604C287.855 75.5275 290.247 78.1579 292.695 80.6514H316.21C309.374 75.3184 303.118 69.281 297.545 62.6389Z" fill="#F2F3F5"/>
<path d="M392.192 62.6389C376.452 43.9687 366.294 21.7371 363.295 0H347.439C348.841 11.6467 351.851 23.0428 356.383 33.8629C362.292 47.9608 370.314 61.0769 380.171 72.7604C382.507 75.5275 384.899 78.1579 387.347 80.6514H410.862C404.024 75.3186 397.766 69.2812 392.192 62.6389Z" fill="#F2F3F5"/>
<path d="M486.846 62.6389C471.106 43.9687 460.943 21.7371 457.944 0H442.094C443.493 11.6472 446.503 23.0436 451.037 33.8629C456.947 47.9608 464.968 61.0769 474.826 72.7604C477.161 75.5275 479.551 78.1579 481.996 80.6514H505.516C498.679 75.3186 492.421 69.2812 486.846 62.6389Z" fill="#F2F3F5"/>
<path d="M581.493 62.6389C565.753 43.9687 555.595 21.7371 552.597 0H536.746C538.148 11.6467 541.157 23.0429 545.689 33.8629C551.601 47.961 559.624 61.0771 569.483 72.7604C571.814 75.5275 574.218 78.1684 576.654 80.6514H600.174C593.334 75.3176 587.073 69.2803 581.493 62.6389Z" fill="#F2F3F5"/>
<path d="M-0.493549 143.126C-16.2335 124.456 -26.3971 102.225 -29.3957 80.4874H-45.2461C-43.8468 92.1346 -40.837 103.531 -36.3029 114.35C-30.3933 128.448 -22.3718 141.564 -12.5142 153.248C-10.1784 156.015 -7.78833 158.645 -5.34387 161.139H18.1766C11.3387 155.806 5.08088 149.769 -0.493549 143.126Z" fill="#F2F3F5"/>
<path d="M108.243 143.126C92.5034 124.456 82.3451 102.225 79.3465 80.4874H63.4961C64.8977 92.1342 67.9074 103.53 72.4392 114.35C78.351 128.447 86.3723 141.563 96.228 153.248C98.5638 156.015 100.956 158.645 103.404 161.139H126.919C120.08 155.805 113.821 149.768 108.243 143.126Z" fill="#F2F3F5"/>
<path d="M202.896 143.126C187.156 124.456 176.997 102.225 173.999 80.4874H158.148C159.55 92.1342 162.56 103.53 167.092 114.35C173.003 128.447 181.025 141.563 190.88 153.248C193.216 156.015 195.608 158.645 198.056 161.139H221.571C214.733 155.805 208.473 149.768 202.896 143.126Z" fill="#F2F3F5"/>
<path d="M297.545 143.126C281.805 124.456 271.647 102.225 268.648 80.4874H252.787C254.186 92.1346 257.196 103.531 261.73 114.35C267.642 128.447 275.663 141.563 285.519 153.248C287.855 156.015 290.247 158.645 292.695 161.139H316.21C309.374 155.806 303.118 149.768 297.545 143.126Z" fill="#F2F3F5"/>
<path d="M392.192 143.126C376.452 124.456 366.294 102.225 363.295 80.4874H347.439C348.841 92.1341 351.851 103.53 356.383 114.35C362.292 128.448 370.314 141.564 380.171 153.248C382.507 156.015 384.899 158.645 387.347 161.139H410.862C404.024 155.806 397.766 149.769 392.192 143.126Z" fill="#F2F3F5"/>
<path d="M486.846 143.126C471.106 124.456 460.943 102.225 457.944 80.4874H442.094C443.493 92.1346 446.503 103.531 451.037 114.35C456.947 128.448 464.968 141.564 474.826 153.248C477.161 156.015 479.551 158.645 481.996 161.139H505.516C498.679 155.806 492.421 149.769 486.846 143.126Z" fill="#F2F3F5"/>
<path d="M581.493 143.126C565.753 124.456 555.595 102.225 552.597 80.4874H536.746C538.148 92.1342 541.157 103.53 545.689 114.35C551.601 128.448 559.624 141.565 569.483 153.248C571.814 156.015 574.218 158.656 576.654 161.139H600.174C593.334 155.805 587.073 149.768 581.493 143.126Z" fill="#F2F3F5"/>
</svg>
