<svg width="103" height="50" viewBox="0 0 103 50" fill="none" xmlns="http://www.w3.org/2000/svg">
<path d="M62.9824 40.5H68.1155V10.5H62.9824V40.5Z" fill="black"/>
<path d="M74.7574 40.5H86.3266C95.4806 40.5 101.982 34.2872 101.982 25.4787C101.982 16.7128 95.4806 10.5 86.3266 10.5L74.7574 10.5V40.5ZM79.8904 35.8191V15.1809H86.3266C92.4435 15.1809 96.6355 19.3936 96.6355 25.4787C96.6355 31.6064 92.4435 35.8191 86.3266 35.8191H79.8904Z" fill="black"/>
<path d="M0.482422 24C0.482422 12.6863 0.482422 7.02944 3.99714 3.51472C7.51186 0 13.1687 0 24.4824 0H26.4824C37.7961 0 43.453 0 46.9677 3.51472C50.4824 7.02944 50.4824 12.6863 50.4824 24V26C50.4824 37.3137 50.4824 42.9706 46.9677 46.4853C43.453 50 37.7961 50 26.4824 50H24.4824C13.1687 50 7.51186 50 3.99714 46.4853C0.482422 42.9706 0.482422 37.3137 0.482422 26V24Z" fill="#0077FF"/>
<path d="M27.0865 36.021C15.6907 36.021 9.19076 28.2085 8.91992 15.2085H14.6282C14.8157 24.7502 19.024 28.7918 22.3573 29.6251V15.2085H27.7325V23.4376C31.0241 23.0835 34.4821 19.3335 35.6487 15.2085H41.0239C40.1281 20.2918 36.378 24.0418 33.7114 25.5835C36.378 26.8335 40.6491 30.1043 42.2741 36.021H36.3573C35.0864 32.0626 31.92 29.0001 27.7325 28.5835V36.021H27.0865Z" fill="white"/>
</svg>
