<svg width="42" height="43" viewBox="0 0 42 43" fill="none" xmlns="http://www.w3.org/2000/svg">
<path fill-rule="evenodd" clip-rule="evenodd" d="M21.887 42.7266H20.1382C10.6428 42.7266 5.8968 42.7266 2.9484 39.7782C0 36.8298 0 32.0838 0 22.6136V22.6136V20.8395V20.8395C0 11.3677 0 6.62337 2.9484 3.67497C5.8968 0.726571 10.6428 0.726562 20.1382 0.726562H21.887C31.3807 0.726562 36.1536 0.726571 39.0768 3.67497C42 6.62337 42 11.371 42 20.8395V22.6136V22.8523C42.0002 32.1637 42.0003 36.8546 39.0768 39.7782C36.1284 42.7266 31.3807 42.7266 21.887 42.7266ZM7.09766 13.5195C7.3211 24.4378 13.0684 31.0083 22.5385 31.0083H23.0879V24.7621C26.5353 25.1115 29.109 27.6853 30.159 31.0083H35.1301C33.7811 26.0372 30.2833 23.2887 28.1094 22.2387C30.2833 20.9401 33.3561 17.7918 34.0801 13.5195H29.5593C28.6084 16.9921 25.786 20.1404 23.0879 20.4395V13.5195H18.4897V25.6374C15.6925 24.9435 12.0436 21.5399 11.8941 13.5195H7.09766Z" fill="white"/>
</svg>
