<svg width="145" height="50" viewBox="0 0 145 50" fill="none" xmlns="http://www.w3.org/2000/svg">
<path d="M74.6594 46.537V34.0175C76.2463 35.913 79.1117 37.9408 83.1233 37.9408C89.6916 37.9408 94.3203 32.9595 94.3203 26.0385C94.3203 19.1175 89.6916 14.1361 83.1233 14.1361C78.9354 14.1361 76.0259 16.3402 74.439 18.2799L73.381 14.5769H69.5898V46.537H74.6594ZM81.889 33.4003C77.6129 33.4003 74.6594 30.3586 74.6594 26.0385C74.6594 21.7184 77.6129 18.6766 81.889 18.6766C86.1209 18.6766 89.0304 21.7184 89.0304 26.0385C89.0304 30.3586 86.1209 33.4003 81.889 33.4003Z" fill="black"/>
<path d="M108.08 14.1361C103.628 14.1361 99.7043 16.4284 98.5581 20.3959L103.231 21.1894C103.936 19.7787 105.523 18.4562 107.816 18.4562C110.593 18.4562 112.224 20.44 112.444 23.4376H107.507C100.762 23.4376 97.412 26.3911 97.412 30.6231C97.412 34.8991 100.718 37.9408 105.391 37.9408C109.138 37.9408 111.651 35.7808 112.753 33.8852L113.811 37.5H117.558V24.6278C117.558 17.9713 113.943 14.1361 108.08 14.1361ZM106.581 33.6648C104.113 33.6648 102.526 32.3864 102.526 30.4027C102.526 28.6394 103.804 27.405 107.683 27.405H112.488C112.488 31.1521 110.108 33.6648 106.581 33.6648Z" fill="black"/>
<path d="M132.644 31.108H131.939L125.194 14.5769H119.772L129.955 38.7343L129.691 39.4397C129.029 41.2911 128.236 41.9083 126.561 41.9083H122.285L122.725 46.537H126.208C130.44 46.537 132.732 44.6414 134.275 40.3654L143.665 14.5769H138.507L132.644 31.108Z" fill="black"/>
<path d="M0.482422 24C0.482422 12.6863 0.482422 7.02944 3.99714 3.51472C7.51186 0 13.1687 0 24.4824 0H26.4824C37.7961 0 43.453 0 46.9677 3.51472C50.4824 7.02944 50.4824 12.6863 50.4824 24V26C50.4824 37.3137 50.4824 42.9706 46.9677 46.4853C43.453 50 37.7961 50 26.4824 50H24.4824C13.1687 50 7.51186 50 3.99714 46.4853C0.482422 42.9706 0.482422 37.3137 0.482422 26V24Z" fill="#0077FF"/>
<path d="M27.0865 36.021C15.6907 36.021 9.19076 28.2085 8.91992 15.2085H14.6282C14.8157 24.7502 19.024 28.7918 22.3573 29.6251V15.2085H27.7325V23.4376C31.0241 23.0835 34.4821 19.3335 35.6487 15.2085H41.0239C40.1281 20.2918 36.3781 24.0418 33.7114 25.5835C36.3781 26.8335 40.6491 30.1043 42.2741 36.021H36.3573C35.0864 32.0626 31.92 29.0001 27.7325 28.5835V36.021H27.0865Z" fill="white"/>
</svg>
