<svg width="43" height="43" viewBox="0 0 43 43" fill="none" xmlns="http://www.w3.org/2000/svg">
<path fill-rule="evenodd" clip-rule="evenodd" d="M27.9961 0.726562C16.2317 0.726562 26.7867 0.726562 15.1322 0.726562C3.47779 0.726562 0.619141 3.5852 0.619141 15.3496C0.619141 21.9464 0.619141 16.559 0.619141 28.2135C0.619141 39.8679 3.4778 42.7266 15.2422 42.7266C27.0066 42.7266 16.4516 42.7266 28.106 42.7266C39.7605 42.7266 42.6191 39.8679 42.6191 28.1035C42.6191 16.3391 42.6191 26.8941 42.6191 15.2397C42.6191 3.58521 39.7605 0.726562 27.9961 0.726562Z" fill="white"/>
<path d="M13.1529 12.7104H10.0744C7.32571 12.7104 6.66602 13.3701 6.66602 16.2288V19.3073C6.66602 22.056 7.32571 22.7157 10.1844 22.7157H16.6713V16.1188C16.5613 13.3701 15.9016 12.7104 13.1529 12.7104Z" fill="#A038E5"/>
<path d="M33.1631 12.7104H30.0846C27.3359 12.7104 26.6762 13.3701 26.6762 16.2288V22.7157H16.6713L16.6709 29.3125C16.6709 32.0612 17.3306 32.7209 20.1893 32.7209H23.2678C26.0165 32.7209 26.6762 32.0612 26.6762 29.2026V22.7157H33.273C36.0217 22.7157 36.6814 22.056 36.6814 19.1974V16.1188C36.5715 13.3701 35.9118 12.7104 33.1631 12.7104Z" fill="#A038E5"/>
</svg>
