<svg width="42" height="42" viewBox="0 0 42 42" fill="none" xmlns="http://www.w3.org/2000/svg">
<path d="M32.26 0H9.74C4.36075 0 0 4.36074 0 9.74V32.26C0 37.6393 4.36074 42 9.74 42H32.26C37.6393 42 42 37.6393 42 32.26V9.74C42 4.36075 37.6393 0 32.26 0Z" fill="white"/>
<path d="M27.7475 22.6784C27.756 22.314 27.4629 22.0139 27.0983 22.0139V22.0139C26.7397 22.0139 26.449 22.3046 26.449 22.6633V26.9656C26.449 27.4877 26.8722 27.9109 27.3943 27.9109V27.9109C27.7552 27.9109 28.0846 27.7055 28.2433 27.3814L29.9322 23.9328C29.9357 23.9255 29.9431 23.9209 29.9513 23.9209V23.9209C29.9632 23.9209 29.9728 23.9307 29.9725 23.9427L29.8955 27.2464C29.887 27.6109 30.1801 27.9109 30.5447 27.9109V27.9109C30.9033 27.9109 31.194 27.6202 31.194 27.2616V22.9593C31.194 22.4372 30.7708 22.0139 30.2487 22.0139V22.0139C29.8878 22.0139 29.5584 22.2194 29.3997 22.5435L27.7108 25.992C27.7073 25.9993 27.6999 26.0039 27.6917 26.0039V26.0039C27.6798 26.0039 27.6702 25.9941 27.6705 25.9822L27.7475 22.6784ZM36.836 22.0139H36.3605C34.5455 22.0139 33.0652 23.4682 33.033 25.2829V25.2829C33.01 26.2829 32.859 26.6319 32.323 26.6319V26.6319C32.1369 26.6319 31.986 26.7828 31.986 26.9689V27.5279C31.986 27.74 32.1579 27.9119 32.37 27.9119V27.9119C33.824 27.9119 34.243 27.3299 34.278 25.2829L34.3031 23.7484C34.3086 23.4124 34.5825 23.1429 34.9185 23.1429V23.1429C35.2584 23.1429 35.534 23.4185 35.534 23.7584V27.2604C35.534 27.6202 35.8257 27.9119 36.1855 27.9119V27.9119C36.5453 27.9119 36.837 27.6202 36.837 27.2604V22.0149C36.837 22.0144 36.8366 22.0139 36.836 22.0139V22.0139ZM6 27.2424C6 27.6122 6.29974 27.9119 6.6695 27.9119V27.9119C7.04313 27.9119 7.34446 27.6061 7.33892 27.2325L7.29131 24.0247C7.29114 24.0133 7.30036 24.0039 7.3118 24.0039V24.0039C7.32034 24.0039 7.32799 24.0092 7.33099 24.0172L8.55544 27.2813C8.69774 27.6606 9.06039 27.9119 9.46553 27.9119V27.9119C9.87163 27.9119 10.2349 27.6595 10.3765 27.2789L11.59 24.0173C11.593 24.0092 11.6007 24.0039 11.6092 24.0039V24.0039C11.6206 24.0039 11.6299 24.0133 11.6297 24.0247L11.5821 27.2325C11.5765 27.6061 11.8779 27.9119 12.2515 27.9119V27.9119C12.6213 27.9119 12.921 27.6122 12.921 27.2424V23.1068C12.921 22.5032 12.4317 22.0139 11.8281 22.0139V22.0139C11.3673 22.0139 10.9559 22.303 10.7999 22.7367L9.49594 26.3594C9.49238 26.3693 9.48298 26.3759 9.47246 26.3759V26.3759C9.46197 26.3759 9.45261 26.3694 9.44901 26.3595L8.12385 22.7332C7.966 22.3013 7.55509 22.0139 7.09519 22.0139V22.0139C6.49033 22.0139 6 22.5043 6 23.1091V27.2424ZM23.564 26.7489H21.7495C21.4477 26.7489 21.203 26.5042 21.203 26.2024V26.2024C21.203 25.9006 21.4477 25.6559 21.7495 25.6559H23.564C23.971 25.6559 24.192 25.8299 24.192 26.2029C24.192 26.5739 23.971 26.7489 23.564 26.7489ZM-nan -nanL19.795 22.0139V24.9624C19.795 26.5908 21.1151 27.9109 22.7435 27.9109H23.529C24.692 27.9109 25.576 27.4339 25.576 26.2009C25.576 24.9679 24.692 24.5259 23.529 24.5259H21.8715C21.5023 24.5259 21.203 24.2266 21.203 23.8574V23.8574C21.203 23.4882 21.5023 23.1889 21.8715 23.1889H24.7915C25.116 23.1889 25.379 22.9259 25.379 22.6014V22.6014C25.379 22.277 25.116 22.0139 24.7915 22.0139H19.795L-nan -nanL-nan -nanZM15.294 25.1899V24.7479C15.294 23.4569 15.608 23.0259 16.364 23.0259C17.12 23.0259 17.434 23.4559 17.434 24.7479V25.1899C17.434 26.4809 17.12 26.8999 16.364 26.8999C15.608 26.8999 15.294 26.4809 15.294 25.1899ZM13.921 24.7599V25.1669C13.921 27.0979 14.689 28.0399 16.364 28.0399C18.039 28.0399 18.807 27.0979 18.807 25.1669V24.7599C18.807 22.8289 18.039 21.8869 16.364 21.8869C14.689 21.8869 13.921 22.8289 13.921 24.7599Z" fill="#A038E5"/>
<path d="M28.7212 14.857C28.7235 14.4551 28.3982 14.128 27.9963 14.128V14.128C27.5959 14.128 27.2713 14.4526 27.2713 14.853V18.9313C27.2713 19.5354 27.761 20.025 28.365 20.025V20.025C28.689 20.025 28.9964 19.8813 29.2042 19.6326L32.3002 15.9275C32.3047 15.9221 32.3114 15.919 32.3184 15.919V15.919C32.3316 15.919 32.3423 15.9297 32.3422 15.9429L32.3234 19.296C32.3211 19.6979 32.6464 20.025 33.0483 20.025V20.025C33.4487 20.025 33.7733 19.7004 33.7733 19.3V15.2217C33.7733 14.6176 33.2837 14.128 32.6797 14.128V14.128C32.3556 14.128 32.0482 14.2717 31.8404 14.5204L28.7444 18.2255C28.7399 18.2309 28.7332 18.234 28.7262 18.234V18.234C28.713 18.234 28.7024 18.2233 28.7024 18.2101L28.7212 14.857ZM22.7703 15.291C23.2072 15.291 23.5613 15.6451 23.5613 16.082V19.3445C23.5613 19.7203 23.866 20.025 24.2418 20.025V20.025C24.6176 20.025 24.9223 19.7203 24.9223 19.3445V16.082C24.9223 15.6451 25.2765 15.291 25.7133 15.291H25.9228C26.244 15.291 26.5043 15.0307 26.5043 14.7095V14.7095C26.5043 14.3883 26.244 14.128 25.9228 14.128H22.5608C22.2397 14.128 21.9793 14.3883 21.9793 14.7095V14.7095C21.9793 15.0307 22.2397 15.291 22.5608 15.291H22.7703ZM17.7648 14.7925C17.7733 14.428 17.4802 14.128 17.1157 14.128V14.128C16.757 14.128 16.4663 14.4187 16.4663 14.7773V19.0797C16.4663 19.6018 16.8896 20.025 17.4117 20.025V20.025C17.7725 20.025 18.1019 19.8195 18.2607 19.4954L19.9495 16.0469C19.9531 16.0396 19.9605 16.035 19.9686 16.035V16.035C19.9805 16.035 19.9901 16.0448 19.9898 16.0567L19.9128 19.3605C19.9043 19.725 20.1974 20.025 20.562 20.025V20.025C20.9206 20.025 21.2113 19.7343 21.2113 19.3757V15.0733C21.2113 14.5512 20.7881 14.128 20.266 14.128V14.128C19.9051 14.128 19.5757 14.3335 19.417 14.6576L17.7281 18.1061C17.7246 18.1134 17.7172 18.118 17.7091 18.118V18.118C17.6971 18.118 17.6875 18.1082 17.6878 18.0963L17.7648 14.7925ZM15.2273 19.2091C15.5239 18.8892 15.3397 18.4035 14.9392 18.2305V18.2305C14.5773 18.0742 14.1706 18.2421 13.8627 18.4882C13.454 18.8148 12.9272 18.897 12.3243 18.897C10.9283 18.897 10.2193 18.281 10.2193 17.117V17.036C10.2193 15.873 10.9293 15.256 12.3243 15.256C12.9273 15.256 13.4542 15.3382 13.8629 15.665C14.1706 15.911 14.5772 16.0788 14.9389 15.9226V15.9226C15.3394 15.7496 15.5235 15.2637 15.2265 14.944C14.512 14.1744 13.4409 14 12.3243 14C10.0913 14 8.69531 15.152 8.69531 16.966V17.187C8.69531 19.013 10.0913 20.153 12.3243 20.153C13.4419 20.153 14.5132 19.9792 15.2273 19.2091Z" fill="#A038E5"/>
</svg>
