<svg width="43" height="43" viewBox="0 0 43 43" fill="none" xmlns="http://www.w3.org/2000/svg">
<rect x="0.619141" y="0.726562" width="42" height="42" rx="9.74052" fill="white"/>
<path fill-rule="evenodd" clip-rule="evenodd" d="M23.8217 27.6024C23.7698 27.2056 24.0293 25.2047 24.0293 25.2047C24.0293 25.2047 24.531 25.2909 24.998 25.3427C25.4824 25.3944 26.2436 25.4289 26.2436 25.4289C26.2436 25.4289 25.8284 26.9124 26.0706 27.2574C26.6241 28.0508 29.6688 29.9828 30.3781 30.7762C30.724 31.1212 31.0873 31.4662 31.5198 31.7594C31.8312 32.0182 32.8172 32.0527 33.0767 32.3114C33.2497 32.5012 33.4573 33.0531 33.3535 33.1394C33.2843 33.2084 31.7793 33.2429 31.5025 33.1911C31.2084 33.1911 30.8624 32.9151 30.8624 32.9151C30.8624 32.9151 30.6548 33.1394 30.3435 32.9841C29.8245 32.7254 29.8937 32.1907 29.5996 31.7594C29.4266 31.5869 26.8663 29.9138 25.2229 28.9823C23.8217 28.2061 23.8909 28.2233 23.8217 27.6024ZM13.6498 22.4621C13.3384 22.1861 12.214 23.152 11.8853 23.083C11.5566 23.014 11.8853 22.2206 11.5912 22.2723C11.2107 22.3413 11.1069 23.2383 10.7436 23.3073C10.19 23.5143 9.86133 22.6863 9.86133 21.6858C9.86133 20.6854 10.2246 19.5987 11.4355 18.8914C12.6465 18.1842 14.4629 18.0117 15.8641 18.4775C17.1961 17.7702 18.9434 15.7176 22.8356 15.6141C26.7279 15.5106 28.1984 17.4598 29.0287 16.994C29.8591 16.5283 30.1359 15.4933 29.9629 14.6999C29.6169 13.1992 28.9422 12.3884 28.406 11.0603C28.0773 10.2323 28.0427 9.12833 28.4752 8.31761C28.6654 7.95537 29.1325 7.54139 29.8245 7.45514C30.5164 7.3689 30.7067 7.95537 31.1911 8.11062C31.6755 8.26586 32.7134 8.36936 32.7999 8.73159C32.8864 9.09383 31.6236 9.38707 31.3468 9.35257C30.6894 9.28357 30.257 9.73205 30.2916 10.5083C30.3262 11.5087 30.5683 11.8537 31.5025 13.2854C32.4193 14.6999 32.4193 17.063 31.243 18.719C30.8624 19.2019 30.4818 19.6159 30.2051 20.1506C29.9975 20.5991 30.2051 19.7022 30.2051 21.4616C30.2051 23.221 29.3055 24.0662 28.1465 24.4457C26.5723 24.946 25.2229 24.7562 23.839 24.601C21.9188 24.3767 20.4138 24.394 19.6353 24.601C18.9607 24.7735 16.8329 25.9637 16.5734 26.5156C16.435 26.8089 15.6911 29.931 15.5527 30.621C15.5008 30.897 15.5354 31.4662 15.397 31.7077C15.2586 31.9837 13.5114 33.0876 12.906 33.3119C12.6292 33.4154 12.0756 33.5534 12.0064 33.4499C11.6258 33.0014 11.6258 32.8979 12.7503 32.1044C12.3524 31.2937 13.4941 31.104 13.8228 30.69C14.1861 30.2587 14.8435 25.5324 15.0684 24.9115C15.2932 24.2905 16.1755 24.0835 16.5388 23.5315C16.3658 23.3418 16.1409 23.4453 15.5181 23.6178C14.9819 23.773 13.8747 24.1525 13.6325 23.9627C13.4076 23.7903 13.9439 22.738 13.6498 22.4621Z" fill="#A038E5"/>
</svg>
