<svg width="805" height="273" viewBox="0 0 805 273" fill="none" xmlns="http://www.w3.org/2000/svg">
<path d="M761.729 145.501H795.943C783.137 203.986 754.016 252.011 705.701 288.195C753.977 324.292 783.105 372.324 795.943 430.794H761.738C744.827 362.892 702.774 316.491 639.525 288.195C669.502 274.807 696.308 256.712 718.076 231.695C739.844 206.678 753.765 177.573 761.729 145.501Z" fill="#00EAFF"/>
<path d="M466.02 288.167C494.269 273.43 519.341 254.494 539.783 229.776C560.225 205.057 573.785 176.894 581.13 145.568H610.792C598.527 204.421 568.041 251.685 520.259 288.198C568.002 324.664 598.488 371.888 610.792 430.789H581.208C565.396 365.038 524.834 319.32 466.02 288.167Z" fill="#00EAFF"/>
<path d="M341.992 288.193C384.783 327.036 414.39 373.445 425.706 430.76H400.681C386.894 370.267 351.762 324.447 302.693 288.193C351.66 252.096 386.909 206.174 400.712 145.492H425.737C414.437 202.839 384.853 249.271 341.992 288.193Z" fill="#00EAFF"/>
<path d="M240.407 430.778H220.115C208.87 376.727 182.605 330.405 148.219 288.211C182.558 246.071 208.877 199.687 220.13 145.541H240.8C238.94 153.553 237.37 161.487 235.244 169.263C227.35 198.172 214.841 225.096 199.531 250.764C192.268 263.004 184.276 274.796 175.597 286.076C174.295 287.764 174.436 288.721 175.652 290.33C196.746 318.164 214.009 348.171 226.604 380.792C232.841 396.652 237.434 413.11 240.313 429.907C240.337 430.174 240.352 430.433 240.407 430.778Z" fill="#00EAFF"/>
<path d="M39.2513 145.492H55.1418C54.7965 148.129 54.5299 150.679 54.1297 153.214C49.5391 182.35 42.1704 210.843 33.5699 239.015C28.6968 254.96 23.1254 270.694 17.9541 286.553C17.6306 287.695 17.6662 288.909 18.056 290.029C30.1721 323.772 40.5147 358.08 48.2912 393.094C50.8729 404.739 52.7014 416.542 54.8594 428.281C55.0006 429.066 55.0164 429.85 55.1106 430.871H45.0661C43.5673 430.871 42.0607 430.871 40.5619 430.871C39.5574 430.871 39.063 430.674 38.906 429.529C35.21 402.966 28.5008 377.086 21.1479 351.355C15.1292 330.293 8.39613 309.451 0.596037 288.97C0.42324 288.385 0.448129 287.759 0.66673 287.189C13.8435 252.133 24.5933 216.213 32.8402 179.682C35.3356 168.618 36.9912 157.373 39.0394 146.206C39.0961 145.964 39.1669 145.726 39.2513 145.492Z" fill="#00EAFF"/>
<path d="M777.457 0.0568848C774.931 14.5882 771.258 28.8966 766.471 42.8476C756.27 72.0312 740.866 97.9034 718.007 119.036C707.278 128.906 695.37 137.412 682.554 144.359C681.985 144.633 681.485 145.033 681.094 145.528H682.718C697.361 145.528 711.996 145.528 726.663 145.481C727.731 145.438 728.757 145.053 729.59 144.382C756.898 121.39 776.013 92.6693 788.812 59.5464C795.897 40.9381 801.048 21.6501 804.185 1.98731C804.287 1.34384 804.42 0.700354 804.538 0.0568848H777.457Z" fill="#00EAFF"/>
<path d="M593.902 0.0568848C593.117 4.55332 592.474 9.06547 591.548 13.5227C587.695 32.3354 581.448 50.5769 572.958 67.8016C557.23 99.795 532.501 126.499 501.808 144.633C501.533 144.798 501.266 144.979 500.701 145.355C501.486 145.434 501.925 145.52 502.381 145.52C514.473 145.52 526.566 145.52 538.658 145.567C540.353 145.567 541.279 144.618 542.346 143.707C568.783 121.17 588.001 93.4854 600.949 61.359C608.618 42.0534 614.027 21.9248 617.067 1.37521C617.155 0.929182 617.271 0.488937 617.412 0.0568848H593.902Z" fill="#00EAFF"/>
<path d="M410.748 0.0560297C401.747 58.6195 376.118 107.868 329.051 145.527H331.209C339.574 145.527 347.939 145.527 356.32 145.527C356.926 145.556 357.532 145.453 358.095 145.224C358.657 144.995 359.163 144.646 359.576 144.201C388.964 115.519 408.958 81.1959 420.949 42.0699C424.957 28.8249 427.951 15.2938 429.903 1.59409C429.973 1.08403 429.958 0.558266 429.981 0.0246582L410.748 0.0560297Z" fill="#00EAFF"/>
<path d="M227.188 0.0554199C226.168 6.56073 225.368 13.0975 224.096 19.5478C218.668 46.4229 209.608 72.4343 197.165 96.8661C188.76 113.596 178.952 129.44 167.047 143.949C166.718 144.349 166.412 144.734 166.059 145.236C166.247 145.346 166.396 145.511 166.545 145.511C172.423 145.511 178.316 145.581 184.186 145.511C185.035 145.361 185.791 144.882 186.289 144.177C194.952 132.39 202.649 119.922 209.304 106.895C224.485 77.7354 235.11 46.4231 240.811 14.047C241.596 9.41712 242.192 4.75588 242.882 0.102501L227.188 0.0554199Z" fill="#00EAFF"/>
<path d="M43.6412 0.054936C42.9506 6.41115 42.4563 12.7909 41.546 19.1158C37.5262 46.4172 31.8473 73.4484 24.5411 100.059C20.5076 114.922 15.972 129.628 10.479 144.004L9.92188 145.502C13.9082 145.502 17.7299 145.549 21.5436 145.44C21.983 145.44 22.6107 144.608 22.7912 144.043C26.1184 133.951 29.6026 123.907 32.6394 113.729C40.1889 88.2218 46.177 62.278 50.5703 36.0421C52.5949 24.0987 53.819 12.0219 55.4041 0L43.6412 0.054936Z" fill="#00EAFF"/>
</svg>
