<svg width="25" height="25" viewBox="0 0 25 25" fill="none" xmlns="http://www.w3.org/2000/svg">
<path fill-rule="evenodd" clip-rule="evenodd" d="M12.2363 0.490234C8.91297 0.490234 8.49718 0.503571 7.19181 0.562234C5.88942 0.620898 4.99909 0.823569 4.22107 1.12023C3.40438 1.42153 2.66504 1.89384 2.05364 2.50424C1.43107 3.10371 0.949832 3.82898 0.642643 4.62957C0.339916 5.39291 0.132396 6.26557 0.0736355 7.54355C0.0141315 8.82289 0 9.23027 0 12.4903C0 15.7503 0.0133877 16.1576 0.0736355 17.4376C0.13314 18.7149 0.339916 19.5876 0.642643 20.3509C0.949832 21.1516 1.43107 21.8769 2.05364 22.4762C2.73347 23.1429 3.41702 23.5536 4.22107 23.8602C4.99909 24.1569 5.88942 24.3602 7.19181 24.4182C8.49718 24.4762 8.91297 24.4902 12.2363 24.4902C15.5603 24.4902 15.9761 24.4769 17.2815 24.4182C18.5839 24.3595 19.4742 24.1569 20.2522 23.8602C21.0689 23.5589 21.8082 23.0866 22.4196 22.4762C23.0995 21.8096 23.5182 21.1396 23.8306 20.3509C24.1334 19.5876 24.3409 18.7149 24.3996 17.4376C24.4591 16.1576 24.4733 15.7496 24.4733 12.4903C24.4733 9.23094 24.4599 8.82289 24.3996 7.54288C24.3401 6.26557 24.1334 5.39291 23.8306 4.62957C23.5234 3.82892 23.0422 3.10362 22.4196 2.50424C21.8082 1.89396 21.0689 1.42166 20.2522 1.12023C19.4742 0.823569 18.5839 0.620236 17.2807 0.562234C15.9761 0.504233 15.5611 0.490234 12.2363 0.490234ZM12.2363 2.65223C15.5038 2.65223 15.8913 2.6649 17.1818 2.72224C18.3749 2.77557 19.0227 2.9709 19.4534 3.13557C20.0246 3.3529 20.4322 3.61357 20.8606 4.03291C21.2891 4.4529 21.5539 4.8529 21.7755 5.4129C21.9436 5.83557 22.143 6.47091 22.1972 7.64091C22.2553 8.90627 22.2686 9.28627 22.2686 12.4903C22.2686 15.6943 22.2553 16.0743 22.1972 17.3396C22.143 18.5096 21.9436 19.1449 21.7755 19.5676C21.5799 20.0889 21.2668 20.5604 20.8606 20.9476C20.4322 21.3676 20.0246 21.6276 19.4534 21.8449C19.0227 22.0096 18.3749 22.2049 17.1818 22.2582C15.8913 22.3156 15.5045 22.3282 12.2363 22.3282C8.96875 22.3282 8.58197 22.3156 7.29147 22.2582C6.09842 22.2049 5.45057 22.0096 5.01991 21.8449C4.48809 21.6527 4.00759 21.346 3.61264 20.9476C3.20652 20.5604 2.89338 20.0889 2.69776 19.5676C2.52967 19.1449 2.33033 18.5096 2.27603 17.3396C2.21727 16.0743 2.20462 15.6943 2.20462 12.4903C2.20462 9.28627 2.21727 8.90627 2.27603 7.64091C2.33033 6.47091 2.52967 5.83557 2.69776 5.4129C2.91942 4.8529 3.18495 4.4529 3.61264 4.03291C4.04107 3.6129 4.44867 3.3529 5.01991 3.13557C5.45057 2.9709 6.09842 2.77557 7.29147 2.72224C8.58197 2.6649 8.9695 2.65223 12.2363 2.65223Z" fill="#99A0B4"/>
<path fill-rule="evenodd" clip-rule="evenodd" d="M12.2349 16.494C11.6994 16.494 11.1683 16.3904 10.6729 16.1891C10.1775 15.988 9.72755 15.693 9.34821 15.3212C8.96887 14.9494 8.66837 14.508 8.46309 14.0222C8.2578 13.5365 8.15218 13.0158 8.15218 12.4899C8.15218 11.9641 8.2578 11.4435 8.46309 10.9577C8.66837 10.4719 8.96887 10.0305 9.34821 9.65872C9.72755 9.2869 10.1775 8.99198 10.6729 8.79071C11.1683 8.58951 11.6994 8.48597 12.2349 8.48597C13.3179 8.48597 14.3562 8.90778 15.1223 9.65872C15.8877 10.4096 16.3184 11.428 16.3184 12.4899C16.3184 13.5519 15.8877 14.5703 15.1223 15.3212C14.3562 16.0721 13.3179 16.494 12.2349 16.494ZM12.2349 6.32196C10.5673 6.32196 8.96738 6.9718 7.78771 8.1285C6.60804 9.28526 5.94531 10.8541 5.94531 12.4899C5.94531 14.1258 6.60804 15.6947 7.78771 16.8514C8.96738 18.0081 10.5673 18.658 12.2349 18.658C13.9032 18.658 15.5032 18.0081 16.6828 16.8514C17.8625 15.6947 18.5245 14.1258 18.5245 12.4899C18.5245 10.8541 17.8625 9.28526 16.6828 8.1285C15.5032 6.9718 13.9032 6.32196 12.2349 6.32196ZM20.355 6.20996C20.355 6.59665 20.198 6.96749 19.9191 7.24093C19.6409 7.51435 19.2623 7.66794 18.8681 7.66794C18.4739 7.66794 18.0953 7.51435 17.8171 7.24093C17.5382 6.96749 17.3813 6.59665 17.3813 6.20996C17.3813 5.82327 17.5382 5.45242 17.8171 5.17899C18.0953 4.90556 18.4739 4.75195 18.8681 4.75195C19.2623 4.75195 19.6409 4.90556 19.9191 5.17899C20.198 5.45242 20.355 5.82327 20.355 6.20996Z" fill="#99A0B4"/>
</svg>
