<svg width="24" height="25" viewBox="0 0 24 25" fill="none" xmlns="http://www.w3.org/2000/svg">
<g clip-path="url(#clip0)">
<path d="M11.5075 24.4902H12.5069C17.9318 24.4902 20.6448 24.4902 22.3296 22.8054C24.0144 21.1206 24 18.4086 24 12.9971V11.9834C24 6.5728 24 3.85984 22.3296 2.17504C20.6592 0.490239 17.9318 0.490234 12.5069 0.490234H11.5075C6.0816 0.490234 3.3696 0.490239 1.6848 2.17504C-1.09863e-06 3.85984 0 6.57088 0 11.9834V12.9971C0 18.4086 -1.09863e-06 21.1206 1.6848 22.8054C3.3696 24.4902 6.0816 24.4902 11.5075 24.4902Z" fill="#99A0B4"/>
<path d="M12.88 17.7941C7.46848 17.7941 4.18432 14.0396 4.05664 7.80054H6.79744C6.88288 12.3836 8.968 14.3285 10.5664 14.725V7.80054H13.1939V11.7548C14.7357 11.5839 16.3485 9.78486 16.8918 7.80054H19.4752C19.0614 10.2418 17.3056 12.0409 16.0634 12.7829C17.3056 13.3829 19.3043 14.9535 20.0752 17.7941H17.2346C16.6346 15.8953 15.1638 14.4245 13.1939 14.2249V17.7941H12.88Z" fill="white"/>
</g>
<defs>
<clipPath id="clip0">
<rect width="24" height="24" fill="white" transform="translate(0 0.490234)"/>
</clipPath>
</defs>
</svg>
