<svg width="42" height="42" viewBox="0 0 42 42" fill="none" xmlns="http://www.w3.org/2000/svg">
<path d="M32.26 0H9.74C4.36075 0 0 4.36074 0 9.74V32.26C0 37.6393 4.36074 42 9.74 42H32.26C37.6393 42 42 37.6393 42 32.26V9.74C42 4.36075 37.6393 0 32.26 0Z" fill="white"/>
<path fill-rule="evenodd" clip-rule="evenodd" d="M8.61914 21.7266H13.6191C13.6191 25.0599 15.6211 31.2266 23.6211 31.2266C29.623 31.2266 33.1211 26.2266 33.1211 21.7266C33.1211 18.2266 31.6216 9.72656 21.1211 9.72656C11.6211 9.72656 8.61947 17.2266 8.61914 21.7266ZM24.1191 25.7266C26.6044 25.7266 28.6191 23.7118 28.6191 21.2266C28.6191 18.7413 26.6044 16.7266 24.1191 16.7266C21.6339 16.7266 19.6191 18.7413 19.6191 21.2266C19.6191 23.7118 21.6339 25.7266 24.1191 25.7266Z" fill="#A038E5"/>
</svg>
