<svg width="215" height="50" viewBox="0 0 215 50" fill="none" xmlns="http://www.w3.org/2000/svg">
<path d="M80.214 37.9409C85.0191 37.9409 89.5596 35.4722 91.2788 30.6672L86.5179 29.8737C85.504 31.9015 83.2557 33.3122 80.5226 33.3122C76.4229 33.3122 73.5575 30.3145 73.5575 26.0385C73.5575 21.7625 76.4229 18.7648 80.5226 18.7648C83.1676 18.7648 85.3717 20.1314 86.3415 22.1151L91.1025 21.3216C89.4273 16.6048 85.1072 14.1361 80.214 14.1361C73.2049 14.1361 68.2676 19.1175 68.2676 26.0385C68.2676 32.9595 73.2049 37.9409 80.214 37.9409Z" fill="black"/>
<path d="M105.75 37.9409C112.935 37.9409 118.005 33.0036 118.005 26.0385C118.005 19.0734 112.935 14.1361 105.75 14.1361C98.5642 14.1361 93.4947 19.0734 93.4947 26.0385C93.4947 33.0036 98.5642 37.9409 105.75 37.9409ZM105.75 33.3122C101.606 33.3122 98.7846 30.3586 98.7846 26.0385C98.7846 21.7184 101.606 18.7648 105.75 18.7648C109.893 18.7648 112.715 21.7184 112.715 26.0385C112.715 30.3586 109.893 33.3122 105.75 33.3122Z" fill="black"/>
<path d="M127.481 37.5V24.0548C127.481 20.9249 129.377 18.6767 132.022 18.6767C134.667 18.6767 136.474 20.9249 136.474 24.0548V37.5H141.544V24.0548C141.544 20.9249 143.439 18.6767 146.084 18.6767C148.729 18.6767 150.537 20.9249 150.537 24.0548V37.5H155.606V23.5699C155.606 18.0595 152.212 14.1361 147.407 14.1361C143.836 14.1361 141.412 16.208 140.398 18.2799C139.252 15.7231 136.695 14.1361 133.609 14.1361C130.303 14.1361 128.231 15.9435 127.129 17.8391L126.203 14.577H122.412V37.5H127.481Z" fill="black"/>
<path d="M174.867 37.9409C181.436 37.9409 186.064 32.9595 186.064 26.0385C186.064 19.1175 181.436 14.1361 174.867 14.1361C170.856 14.1361 167.991 16.1639 166.404 18.0595V6.42163H161.334V37.5H165.125L166.183 33.7971C167.77 35.7367 170.68 37.9409 174.867 37.9409ZM173.633 33.4003C169.357 33.4003 166.404 30.3586 166.404 26.0385C166.404 21.7184 169.357 18.6767 173.633 18.6767C177.865 18.6767 180.775 21.7184 180.775 26.0385C180.775 30.3586 177.865 33.4003 173.633 33.4003Z" fill="black"/>
<path d="M201.406 37.9409C208.591 37.9409 213.661 33.0036 213.661 26.0385C213.661 19.0734 208.591 14.1361 201.406 14.1361C194.22 14.1361 189.151 19.0734 189.151 26.0385C189.151 33.0036 194.22 37.9409 201.406 37.9409ZM201.406 33.3122C197.262 33.3122 194.441 30.3586 194.441 26.0385C194.441 21.7184 197.262 18.7648 201.406 18.7648C205.55 18.7648 208.371 21.7184 208.371 26.0385C208.371 30.3586 205.55 33.3122 201.406 33.3122Z" fill="black"/>
<path d="M0.482422 24C0.482422 12.6863 0.482422 7.02944 3.99714 3.51472C7.51186 0 13.1687 0 24.4824 0H26.4824C37.7961 0 43.453 0 46.9677 3.51472C50.4824 7.02944 50.4824 12.6863 50.4824 24V26C50.4824 37.3137 50.4824 42.9706 46.9677 46.4853C43.453 50 37.7961 50 26.4824 50H24.4824C13.1687 50 7.51186 50 3.99714 46.4853C0.482422 42.9706 0.482422 37.3137 0.482422 26V24Z" fill="#0077FF"/>
<path d="M27.0865 36.021C15.6907 36.021 9.19076 28.2085 8.91992 15.2085H14.6282C14.8157 24.7502 19.024 28.7918 22.3573 29.6251V15.2085H27.7325V23.4376C31.0242 23.0835 34.4821 19.3335 35.6487 15.2085H41.0239C40.1281 20.2918 36.3781 24.0418 33.7114 25.5835C36.3781 26.8335 40.6491 30.1043 42.2741 36.021H36.3573C35.0864 32.0626 31.92 29.0001 27.7325 28.5835V36.021H27.0865Z" fill="white"/>
</svg>
