<svg width="42" height="42" viewBox="0 0 42 42" fill="none" xmlns="http://www.w3.org/2000/svg">
<path d="M32.26 0H9.74C4.36075 0 0 4.36074 0 9.74V32.26C0 37.6393 4.36074 42 9.74 42H32.26C37.6393 42 42 37.6393 42 32.26V9.74C42 4.36075 37.6393 0 32.26 0Z" fill="white"/>
<path d="M21.6728 32.2261C23.3728 27.0261 27.4728 23.0261 32.5728 21.3261C32.9728 21.2261 33.0728 20.8261 32.9728 20.5261C32.8728 20.3261 32.7728 20.1261 32.5728 20.1261C27.3728 18.4261 23.3728 14.4261 21.6728 9.22611C21.5728 8.82611 21.1728 8.72611 20.8728 8.82611C20.6728 8.92611 20.4728 9.02611 20.4728 9.22611C18.7728 14.4261 14.6728 18.4261 9.57279 20.1261C9.17279 20.2261 9.07279 20.6261 9.17279 20.9261C9.27279 21.1261 9.37279 21.3261 9.57279 21.3261C14.7728 23.0261 18.7728 27.0261 20.4728 32.2261C20.5728 32.6261 20.9728 32.7261 21.2728 32.6261C21.4728 32.6261 21.5728 32.5261 21.6728 32.2261Z" fill="#17D685"/>
</svg>
